# xmcd
#
# Track frame offsets:
#	150
#	19657
#	40666
#	56685
#	71022
#
# Disc length: 1242 seconds
#
# Revision: 1
# Processed by: cddbd v1.5.2PL0 Copyright (c) Steve Scherf et al.
# Submitted via: audiograbber 1.83.01
#
DISCID=3b04d805
DTITLE=Instant Mix - Smack Blow Buffet
DYEAR=2004
DGENRE=
TTITLE0=Happy Song
TTITLE1=Into The Ground
TTITLE2=Palme d'Or
TTITLE3=Lung
TTITLE4=Fallen
EXTD=
EXTT0=
EXTT1=
EXTT2=
EXTT3=
EXTT4=
PLAYORDER=
